<svg xmlns="http://www.w3.org/2000/svg" xmlns:xlink="http://www.w3.org/1999/xlink" viewBox="0 0 196 195"><defs><linearGradient id="c"><stop offset="0" stop-color="#b63a32"/><stop offset="1" stop-color="#d43f36"/></linearGradient><linearGradient id="a"><stop offset="0" stop-color="#daac3c"/><stop offset="1" stop-color="#f7c542"/></linearGradient><radialGradient id="d" cx="172.1" cy="138.31" r="18.58" fx="172.1" fy="138.31" gradientTransform="matrix(1.24234 -.90962 1.3977 1.90894 -236.99 33.87)" gradientUnits="userSpaceOnUse" xlink:href="#a"/><linearGradient id="b"><stop offset="0" stop-color="#b63a32"/><stop offset="1" stop-color="#d43f36"/></linearGradient><radialGradient id="e" cx="23.23" cy="60.37" r="17.04" fx="23.23" fy="60.37" gradientTransform="matrix(-1.58403 1.91896 1.0498 .86656 55.97 -63.46)" gradientUnits="userSpaceOnUse" xlink:href="#c"/></defs><g><path fill="#d43f36" d="M52.88 2.53c5.81-.07 10.8 4.04 13.27 9.06l14.48 24.24C74.85 51.13 65.51 64.9 56.3 78.28c-.41-3.73-.95-7.88-3.3-10.96C41.1 47.86 29.2 28.39 17.28 8.93c-2.59-3.14.23-7.06 4-6.47 10.54-.04 21.08.06 31.61.07z"/><path fill="#099e57" d="M179.5 48.05c-1.06-2.4-4.09-1.91-6.2-2.1l-30.13.09a14.14 14.14 0 0 0-11.96 6.87l-36.14 58.84a13.17 13.17 0 0 0 0 14.36c6.91 11.02 13.44 22.27 20.52 33.16.76-4.12 1.96-8.23 4.33-11.73 6.94-10.72 13.23-21.83 20.2-32.53l37.92-61.24c1-1.71 2.22-3.68 1.45-5.72z"/><path fill="#4585f4" d="M80.63 35.84c-8.39 14.9-16.12 30.19-25.7 44.38-12.41 20.32-24.83 40.65-37.25 60.95-3.7 5.1 1.2 7.33 6.03 7.3 10-.04 20 .07 29.98-.08 5.42-.3 9.86-4.03 12.2-8.73 11.84-19.3 23.77-38.54 35.57-57.86a12.86 12.86 0 0 0-1.2-14.28L80.63 35.84z"/><path fill="#f7c542" d="M140.11 115c-.32 4.24.34 8.67 2.92 12.15 11.87 19.4 23.82 38.76 35.62 58.2 2.11 3.19-.29 6.4-3.8 6.29l-32.35.16c-5.62-.2-10.53-4.06-12.89-9.05-4.53-7.9-9.36-15.64-14.03-23.47.74-5.14 2.94-9.88 5.83-14.13l18.7-30.15z"/><path fill="url(#d)" d="M145.12 93.08c6.96 10.7 13.25 21.81 20.19 32.53 2.37 3.5 3.57 7.61 4.33 11.73l-1.79 2.99-30.98-24.4c1.63-2.87 4.86-9.69 6.49-12.57 1.83-3.09 1.87-6.8 1.76-10.28z" transform="matrix(-1 0 0 1 285.23 21.93)"/><path fill="url(#e)" d="M77.56 30.72L46.58 55.34c3.24 6.94 8.12 13.28 9.45 21 .07 1.44.47 1.59 1.13.2C63.9 66 70.46 55.85 77.14 45.28c1.68-2.93 2.65-6.19 3.5-9.44l-3.08-5.12z"/></g></svg>